<?xml version="1.0" encoding="iso-8859-1"?>
<!-- Uploaded to: SVG Repo, www.svgrepo.com, Generator: SVG Repo Mixer Tools -->
<!DOCTYPE svg PUBLIC "-//W3C//DTD SVG 1.1//EN" "http://www.w3.org/Graphics/SVG/1.1/DTD/svg11.dtd">
<svg fill="#000000" height="800px" width="800px" version="1.1" id="Capa_1" xmlns="http://www.w3.org/2000/svg" xmlns:xlink="http://www.w3.org/1999/xlink" 
	 viewBox="0 0 495.06 495.06" xml:space="preserve">
<g id="XMLID_278_">
	<path id="XMLID_281_" d="M494.476,74.417c0,0-150.689-8.059-194.523,35.774c-27.166,27.151-34.388,95.282-35.949,143.225v-90.873
		c6.111-4.868,10.103-12.281,10.103-20.703c0-6.82-2.655-12.98-6.872-17.686c9.687-16.473,17.759-34.351,52.116-57.136
		c11.15-7.44,19.436-11.004,19.436-11.004l-0.518-1.56c0,0-8.959,2.035-21.651,7.479c-27.925,11.678-52.632,34.206-61.397,48.885
		c-1.047,1.615-1.914,3.272-2.734,4.946c-1.609-0.307-3.266-0.5-4.952-0.5c-1.692,0-3.349,0.193-4.957,0.5
		c-0.821-1.674-1.688-3.331-2.735-4.946c-8.766-14.679-33.473-37.207-61.396-48.885c-12.692-5.444-21.652-7.479-21.652-7.479
		l-0.518,1.56c0,0,8.29,3.563,19.435,11.004c34.214,22.688,42.431,40.663,52.117,57.136c-4.216,4.705-6.868,10.865-6.868,17.686
		c0,8.422,3.99,15.835,10.104,20.703v90.873c-1.561-47.942-8.783-116.073-35.953-143.225C151.274,66.358,0.585,74.417,0.585,74.417
		s-8.074,150.675,35.773,194.515c31.11,31.126,115.898,36.057,162.576,36.313c-30.623,4.964-73.992,14.381-89.079,29.463
		c-24.224,24.225-24.224,63.504,0,87.729c24.242,24.226,63.504,24.226,87.747,0c21.52-21.523,31.496-100.605,33.459-118.02v103.543
		c0,9.097,7.363,16.473,16.472,16.473c9.102,0,16.47-7.376,16.47-16.473V304.416c1.965,17.414,11.936,96.497,33.455,118.02
		c24.243,24.226,63.51,24.226,87.751,0c24.226-24.225,24.226-63.504,0-87.729c-15.091-15.082-58.454-24.499-89.083-29.463
		c46.678-0.256,131.467-5.187,162.576-36.313C502.55,225.092,494.476,74.417,494.476,74.417z M193.018,266.848
		c0,0-101.163,5.422-130.567-24.008c-29.436-29.427-24.016-130.581-24.016-130.581s101.164-5.412,130.583,24.015
		C198.452,165.694,193.018,266.848,193.018,266.848z M161.569,398.558c-15.361,0-27.826-12.458-27.826-27.827
		c0-15.371,12.465-27.83,27.826-27.83c15.363,0,27.829,12.459,27.829,27.83C189.398,386.1,176.933,398.558,161.569,398.558z
		 M333.491,342.909c15.361,0,27.832,12.459,27.832,27.827c0,15.371-12.471,27.83-27.832,27.83c-15.363,0-27.827-12.459-27.827-27.83
		C305.664,355.368,318.128,342.909,333.491,342.909z M432.61,242.849c-29.404,29.43-130.567,24.008-130.567,24.008
		s-5.435-101.153,24.001-130.574c29.424-29.43,130.586-24.017,130.586-24.017S462.048,213.42,432.61,242.849z"/>
	<path id="XMLID_280_" d="M115.724,149.922c-21.874,0-39.635,17.744-39.635,39.635c0,21.893,17.761,39.635,39.635,39.635
		c21.881,0,39.635-17.742,39.635-39.635C155.358,167.666,137.604,149.922,115.724,149.922z"/>
	<path id="XMLID_279_" d="M379.337,149.931c-21.875,0-39.635,17.742-39.635,39.636c0,21.892,17.76,39.634,39.635,39.634
		s39.635-17.742,39.635-39.634C418.972,167.673,401.212,149.931,379.337,149.931z"/>
</g>
</svg>