<?xml version="1.0" encoding="iso-8859-1"?>
<!-- Uploaded to: SVG Repo, www.svgrepo.com, Generator: SVG Repo Mixer Tools -->
<!DOCTYPE svg PUBLIC "-//W3C//DTD SVG 1.1//EN" "http://www.w3.org/Graphics/SVG/1.1/DTD/svg11.dtd">
<svg fill="#000000" height="800px" width="800px" version="1.1" id="Capa_1" xmlns="http://www.w3.org/2000/svg" xmlns:xlink="http://www.w3.org/1999/xlink" 
	 viewBox="0 0 485.965 485.965" xml:space="preserve">
<g id="XMLID_315_">
	<path id="XMLID_319_" d="M200.069,170.756c-16.388,0-30.635,9.034-38.092,22.367c-7.487-13.333-21.734-22.367-38.105-22.367
		c-24.117,0-43.66,19.545-43.66,43.65c0,50.068,81.764,100.804,81.764,100.804s81.734-50.497,81.734-100.804
		C243.711,190.3,224.168,170.756,200.069,170.756z"/>
	<path id="XMLID_318_" d="M69.557,290.27H29.809v-91.476c0-8.232-6.67-14.904-14.905-14.904C6.67,183.89,0,190.562,0,198.795
		v111.006c0,2.982,2.425,5.409,5.408,5.409h64.149c6.886,0,12.471-5.585,12.471-12.469C82.028,295.855,76.443,290.27,69.557,290.27z
		"/>
	<path id="XMLID_317_" d="M367.527,183.89c-6.527,0-12.281,4.292-14.152,10.543l-13.603,45.57c-4.483,15-8.572,30.587-11.884,46.371
		h-0.583c-3.121-16.371-7.211-31.371-11.693-46.957l-12.786-44.438c-1.89-6.568-7.894-11.09-14.724-11.09
		c-4.894,0-9.497,2.34-12.385,6.291c-2.888,3.958-3.705,9.05-2.213,13.708l34.474,107.56c0.722,2.237,2.801,3.761,5.157,3.761
		h26.844c2.326,0,4.388-1.482,5.123-3.689l36.427-108.147c1.514-4.507,0.77-9.472-2.005-13.327
		C376.751,186.183,372.287,183.89,367.527,183.89z"/>
	<path id="XMLID_316_" d="M473.789,290.858h-41.797v-31.174h36.242c6.674,0,12.082-5.409,12.082-12.082
		c0-6.67-5.408-12.079-12.082-12.079h-36.242v-27.281h39.068c6.727,0,12.173-5.449,12.173-12.175
		c0-6.727-5.446-12.177-12.173-12.177h-63.466c-2.982,0-5.412,2.427-5.412,5.418v120.492c0,2.982,2.43,5.409,5.412,5.409h66.194
		c6.725,0,12.177-5.448,12.177-12.177C485.965,296.306,480.514,290.858,473.789,290.858z"/>
</g>
</svg>