<?xml version="1.0" encoding="iso-8859-1"?>
<!-- Uploaded to: SVG Repo, www.svgrepo.com, Generator: SVG Repo Mixer Tools -->
<!DOCTYPE svg PUBLIC "-//W3C//DTD SVG 1.1//EN" "http://www.w3.org/Graphics/SVG/1.1/DTD/svg11.dtd">
<svg fill="#000000" height="800px" width="800px" version="1.1" id="Capa_1" xmlns="http://www.w3.org/2000/svg" xmlns:xlink="http://www.w3.org/1999/xlink" 
	 viewBox="0 0 492.904 492.904" xml:space="preserve">
<path id="XMLID_347_" d="M246.452,0.002C110.342,0.002,0,110.343,0,246.453c0,136.109,110.342,246.449,246.452,246.449
	s246.452-110.34,246.452-246.449C492.904,110.343,382.563,0.002,246.452,0.002z M443.611,246.453
	c0,44.22-14.808,84.941-39.487,117.866L271.097,231.265V51.002C368.2,63.195,443.611,146.108,443.611,246.453z M221.809,441.905
	c-37.143-4.66-71.114-19.607-98.889-42.022l98.889-98.885V441.905z M271.097,300.982l98.9,98.9
	c-27.788,22.415-61.757,37.362-98.9,42.022V300.982z M221.809,51.002v180.281L88.775,364.32
	c-24.674-32.925-39.486-73.647-39.486-117.866C49.289,146.108,124.704,63.195,221.809,51.002z"/>
</svg>